<?xml version="1.0" encoding="UTF-8"?>
<svg width="22px" height="22px" viewBox="0 0 22 22" version="1.1" xmlns="http://www.w3.org/2000/svg" xmlns:xlink="http://www.w3.org/1999/xlink">
    <!-- Generator: Sketch 63.1 (92452) - https://sketch.com -->
    <title>back arrow</title>
    <desc>Created with Sketch.</desc>
    <g id="Page-1" stroke="none" stroke-width="1" fill="none" fill-rule="evenodd">
        <g id="Desktop-Copy" transform="translate(-490.000000, -242.000000)" fill="#2A39CA">
            <g id="apay_primary-copy-4" transform="translate(480.000000, 232.000000)">
                <g id="QR-Code" transform="translate(21.000000, 21.000000) scale(1, -1) rotate(-90.000000) translate(-21.000000, -21.000000) translate(9.000000, 9.000000)">
                    <g id="qr" transform="translate(1.333333, 1.333333)">
                        <path d="M10.6666667,2.5 L10.6666667,4.16666667 L9,4.16666667 L9,2.5 L10.6666667,2.5 Z M9,12.2916667 L9,14.6666667 L10.6666667,14.6666667 L10.6666667,12.2916667 L9,12.2916667 Z M14,21.3333333 L14,19.6666667 L12.3333333,19.6666667 L12.3333333,18 L10.6666667,18 L10.6666667,21.3333333 L14,21.3333333 Z M17.3333333,8.95833333 L12.3333333,8.95833333 L12.3333333,10.625 L17.3333333,10.625 L17.3333333,8.95833333 Z M17.3333333,12.2916667 L19.6666667,12.2916667 L19.6666667,10.625 L17.3333333,10.625 L17.3333333,12.2916667 Z M17.3333333,14.6666667 L17.3333333,16.3333333 L21.3333333,16.3333333 L21.3333333,12.2916667 L19.6666667,12.2916667 L19.6666667,14.6666667 L17.3333333,14.6666667 Z M12.3333333,0 L10.6666667,0 L10.6666667,2.5 L12.3333333,2.5 L12.3333333,0 Z M10.6666667,7.5 L12.3333333,7.5 L12.3333333,4.16666667 L10.6666667,4.16666667 L10.6666667,5.83333333 L9,5.83333333 L9,10.625 L10.6666667,10.625 L10.6666667,7.5 Z M0,8.95833333 L0,12.2916667 L1.66666667,12.2916667 L1.66666667,10.625 L4.16666667,10.625 L4.16666667,8.95833333 L0,8.95833333 Z M12.3333333,12.2916667 L12.3333333,10.625 L10.6666667,10.625 L10.6666667,12.2916667 L12.3333333,12.2916667 Z M15.6666667,13.9583333 L17.3333333,13.9583333 L17.3333333,12.2916667 L15.6666667,12.2916667 L15.6666667,13.9583333 Z M19.6666667,10.625 L21.3333333,10.625 L21.3333333,8.95833333 L19.6666667,8.95833333 L19.6666667,10.625 Z M14,12.2916667 L12.3333333,12.2916667 L12.3333333,14.6666667 L10.6666667,14.6666667 L10.6666667,16.3333333 L14,16.3333333 L14,12.2916667 Z M9,18 L10.6666667,18 L10.6666667,16.3333333 L9,16.3333333 L9,18 Z M14,16.3333333 L14,18 L17.3333333,18 L17.3333333,16.3333333 L14,16.3333333 Z M19,19.6666667 L19,18 L17.3333333,18 L17.3333333,19.6666667 L19,19.6666667 Z M21.3333333,21.3333333 L21.3333333,19.6666667 L19,19.6666667 L19,21.3333333 L21.3333333,21.3333333 Z M15.6666667,21.3333333 L17.3333333,21.3333333 L17.3333333,19.6666667 L15.6666667,19.6666667 L15.6666667,21.3333333 Z M7.5,10.625 L7.5,8.95833333 L5.83333333,8.95833333 L5.83333333,10.625 L4.16666667,10.625 L4.16666667,12.2916667 L9,12.2916667 L9,10.625 L7.5,10.625 Z M7.5,7.5 L0,7.5 L0,0 L7.5,0 L7.5,7.5 Z M5.83333333,1.66666667 L1.66666667,1.66666667 L1.66666667,5.83333333 L5.83333333,5.83333333 L5.83333333,1.66666667 Z M4.58333333,2.91666667 L2.91666667,2.91666667 L2.91666667,4.58333333 L4.58333333,4.58333333 L4.58333333,2.91666667 Z M21.3333333,0 L21.3333333,7.5 L13.8333333,7.5 L13.8333333,0 L21.3333333,0 Z M19.6666667,1.66666667 L15.5,1.66666667 L15.5,5.83333333 L19.6666667,5.83333333 L19.6666667,1.66666667 Z M18.4166667,2.91666667 L16.75,2.91666667 L16.75,4.58333333 L18.4166667,4.58333333 L18.4166667,2.91666667 Z M0,13.8333333 L7.5,13.8333333 L7.5,21.3333333 L0,21.3333333 L0,13.8333333 Z M1.66666667,19.6666667 L5.83333333,19.6666667 L5.83333333,15.5 L1.66666667,15.5 L1.66666667,19.6666667 Z M2.91666667,18.4166667 L4.58333333,18.4166667 L4.58333333,16.75 L2.91666667,16.75 L2.91666667,18.4166667 Z" id="Shape" fill-rule="nonzero"></path>
                    </g>
                </g>
            </g>
        </g>
    </g>
</svg>